<?xml version="1.0" encoding="UTF-8"?>
<svg width="1280" height="640" version="1.1" viewBox="0 0 1280 640"
  xmlns="http://www.w3.org/2000/svg">
  <g transform="matrix(.56098 0 0 .56098 71.065 154.36)">
    <path d="m512 255.9-4e-3 112c-0.896 44.2-35.896 80.1-79.996 80.1-26.47 0-48-21.56-48-48.06v-127.84c0-26.5 21.5-48.1 48-48.1 10.83 0 20.91 2.723 30.3 6.678-12.6-103.58-100.2-182.55-206.3-182.55s-193.71 78.97-206.3 182.57c9.39-4 19.47-6.7 30.3-6.7 26.5 0 48 21.6 48 48.1v127.9c0 26.4-21.5 48-48 48-44.11 0-79.1-35.88-79.1-80.06l-0.9-111.94c0-141.2 114.8-256 256-256 140.9 0 256.5 114.56 256 255.36 0 0.2 0 0-2e-3 0.54451z" fill="#a3e635"/>
    <path d="m364 315v-138.86c0-12.782-10.366-23.143-23.143-23.143h-146.57c-25.563 0-46.286 20.723-46.286 46.286v154.29c0 25.563 20.723 46.286 46.286 46.286h154.29c8.5195 0 15.429-6.9091 15.429-14.995 0-5.6507-3.1855-10.376-7.7143-13.066v-39.227c4.725-4.6479 7.7143-10.723 7.7143-17.569zm-147.01-100.29h92.572c4.6768 0 8.1482 3.4714 8.1482 7.7143s-3.4714 7.7143-7.7143 7.7143h-93.006c-3.8089 0-7.2804-3.4714-7.2804-7.7143s3.4714-7.7143 7.2804-7.7143zm0 30.857h92.572c4.6768 0 8.1482 3.4714 8.1482 7.7143s-3.4714 7.7143-7.7143 7.7143h-93.006c-3.8089 0-7.2804-3.4714-7.2804-7.7143s3.4714-7.7143 7.2804-7.7143zm116.15 123.43h-138.86c-8.5195 0-15.429-6.9091-15.429-15.429 0-8.5195 6.9091-15.429 15.429-15.429h138.86z" fill="#a3e635"/>
    <g transform="translate(492.35 -31.86)" fill="#f4f4f5" aria-label="Ambry">
      <path d="m283.08 388.31h-123.38l-24 91.692h-95.692l140-448h82.769l140.92 448h-96.615zm-103.69-75.385h83.692l-41.846-159.69z"/>
      <path d="m533.4 146.87 62.92 240.93 62.691-240.93h87.859v333.13h-67.496v-90.147l6.1776-138.88-66.581 229.03h-45.76l-66.581-229.03 6.1775 138.88v90.147h-67.267v-333.13z"/>
      <path d="m800.87 480v-333.13h102.96q52.166 0 79.165 23.338 27.227 23.109 27.227 67.953 0 25.397-11.211 43.701t-30.659 26.77q22.422 6.4064 34.549 25.854 12.126 19.219 12.126 47.59 0 48.506-26.77 73.216-26.541 24.71-77.105 24.71zm67.267-144.83v89.003h43.014q18.075 0 27.456-11.211 9.3809-11.211 9.3809-31.803 0-44.845-32.49-45.989zm0-48.963h35.006q39.582 0 39.582-40.955 0-22.651-9.152-32.49t-29.744-9.8384h-35.693z"/>
      <path d="m1164.7 358.28h-33.405v121.72h-67.267v-333.13h107.31q50.565 0 78.02 26.312 27.685 26.083 27.685 74.36 0 66.352-48.277 92.893l58.344 136.36v3.2032h-72.301zm-33.405-56.056h38.21q20.134 0 30.202-13.27 10.067-13.499 10.067-35.922 0-50.107-39.125-50.107h-39.354z"/>
      <path d="m1412.7 296.5 50.107-149.63h73.216l-89.232 212.33v120.81h-68.182v-120.81l-89.461-212.33h73.216z"/>
    </g>
  </g>
  <g transform="matrix(.62037 0 0 .62037 -18.928 119.81)" fill="#a1a1aa" style="shape-inside:url(#rect244);white-space:pre" aria-label="Personal Audiobook Streaming">
    <path d="m411.95 501.36h-20.544v66.432h14.112v-22.656h7.584c15.168 0 26.112-7.008 26.112-22.368 0-14.496-10.368-21.408-27.264-21.408zm0 33.408h-6.432v-23.232h6.24c8.256 0 12.864 3.456 12.864 11.232 0 9.024-4.896 12-12.672 12z"/>
    <path d="m488.37 541.2c0-16.224-8.544-25.824-22.944-25.824-14.88 0-23.136 11.904-23.136 27.264 0 15.936 8.544 26.688 24.864 26.688 7.968 0 14.304-2.88 19.296-6.912l-5.664-7.68c-4.416 3.072-8.064 4.416-12.384 4.416-6.528 0-11.136-2.88-12.096-12.672h31.776c0.096-1.44 0.288-3.552 0.288-5.28zm-13.536-3.264h-18.528c0.672-9.6 4.032-13.248 9.408-13.248 6.528 0 9.12 4.992 9.12 12.672z"/>
    <path d="m524.56 515.47c-5.952 0-10.848 4.224-13.248 11.328l-1.248-9.888h-11.808v50.88h13.632v-26.304c1.824-8.16 4.704-12.768 10.944-12.768 1.728 0 2.976 0.288 4.512 0.672l2.304-13.152c-1.728-0.48-3.264-0.768-5.088-0.768z"/>
    <path d="m552.02 515.38c-12.288 0-20.16 6.528-20.16 15.168 0 7.68 4.8 12.768 15.072 15.648 9.408 2.592 11.232 3.84 11.232 7.68 0 3.456-3.264 5.568-8.352 5.568s-9.792-2.016-13.632-4.992l-6.72 7.488c4.8 4.416 11.904 7.392 20.736 7.392 12.096 0 21.984-5.952 21.984-16.512 0-9.024-5.76-13.248-15.936-16.032-8.928-2.592-10.656-3.936-10.656-6.912 0-2.784 2.496-4.608 7.008-4.608 4.416 0 8.544 1.44 12.672 4.032l5.184-7.776c-4.8-3.84-11.04-6.144-18.432-6.144z"/>
    <path d="m602.51 515.38c-15.36 0-24.48 10.752-24.48 26.976 0 16.896 9.216 26.976 24.384 26.976 15.264 0 24.384-10.848 24.384-26.976 0-16.896-9.12-26.976-24.288-26.976zm0 10.176c6.624 0 10.08 5.088 10.08 16.8 0 11.616-3.456 16.8-10.176 16.8s-10.176-5.088-10.176-16.8c0-11.616 3.456-16.8 10.272-16.8z"/>
    <path d="m665.58 515.38c-6.528 0-11.424 2.88-15.552 7.968l-1.056-6.432h-11.808v50.88h13.632v-35.136c2.784-4.512 5.856-7.104 9.792-7.104 3.456 0 5.568 1.632 5.568 7.488v34.752h13.632v-37.056c0-9.6-5.28-15.36-14.208-15.36z"/>
    <path d="m731.63 553.68v-20.544c0-11.52-6.048-17.76-20.16-17.76-5.76 0-12.48 1.248-18.816 3.744l3.072 9.12c5.184-1.728 10.08-2.688 13.44-2.688 6.432 0 9.12 2.016 9.12 8.352v2.496h-5.856c-15.072 0-23.424 6.048-23.424 17.184 0 9.216 6.336 15.744 16.512 15.744 6.048 0 11.616-2.112 15.264-7.68 2.112 5.088 5.952 7.008 11.712 7.488l2.88-9.024c-2.496-0.864-3.744-2.304-3.744-6.432zm-22.368 5.856c-4.224 0-6.528-2.592-6.528-7.104 0-5.568 3.648-8.256 11.04-8.256h4.512v9.696c-2.112 3.648-5.088 5.664-9.024 5.664z"/>
    <path d="m756.98 569.33c3.456 0 6.528-0.768 8.736-1.728l-2.784-9.696c-0.768 0.384-1.632 0.576-2.688 0.576-1.92 0-2.784-1.152-2.784-3.36v-60l-13.632 1.536v58.848c0 8.832 4.896 13.824 13.152 13.824z"/>
    <path d="m831.57 567.79h14.976l-20.352-66.432h-17.184l-20.448 66.432h14.688l3.744-14.88h20.832zm-21.888-25.344 7.68-30.624 7.776 30.624z"/>
    <path d="m894.06 516.91h-13.632v35.616c-2.4 4.128-5.568 6.624-9.312 6.624s-5.568-1.824-5.568-7.392v-34.848h-13.632v36.576c0 9.792 4.8 15.84 14.208 15.84 6.816 0 11.808-2.688 15.456-8.352l0.672 6.816h11.808z"/>
    <path d="m937.94 495.12v25.344c-3.072-2.976-7.2-5.088-12.384-5.088-12.576 0-20.64 11.232-20.64 26.976 0 16.224 6.528 26.976 19.296 26.976 6.816 0 11.52-3.36 14.592-7.776l0.768 6.24h12v-71.136zm-9.696 64.032c-5.472 0-9.12-4.032-9.12-16.8 0-11.904 4.032-16.896 9.984-16.896 3.744 0 6.336 1.824 8.832 4.8v22.752c-2.688 4.032-5.568 6.144-9.696 6.144z"/>
    <path d="m971.73 490.71c-4.896 0-8.256 3.456-8.256 7.968s3.36 7.968 8.256 7.968 8.352-3.456 8.352-7.968-3.456-7.968-8.352-7.968zm6.912 26.208h-13.632v50.88h13.632z"/>
    <path d="m1013.5 515.38c-15.36 0-24.48 10.752-24.48 26.976 0 16.896 9.216 26.976 24.384 26.976 15.264 0 24.384-10.848 24.384-26.976 0-16.896-9.12-26.976-24.288-26.976zm0 10.176c6.624 0 10.08 5.088 10.08 16.8 0 11.616-3.456 16.8-10.176 16.8s-10.176-5.088-10.176-16.8c0-11.616 3.456-16.8 10.272-16.8z"/>
    <path d="m1075.7 515.38c-5.76 0-10.752 2.688-13.92 7.008v-27.264l-13.632 1.536v71.136h12.096l0.768-4.992c3.168 4.128 7.68 6.528 13.344 6.528 12.576 0 20.16-11.232 20.16-26.976 0-16.992-6.912-26.976-18.816-26.976zm-5.184 43.872c-3.648 0-6.624-2.016-8.736-5.472v-21.792c2.304-3.84 5.472-6.528 9.408-6.528 5.376 0 9.12 3.648 9.12 16.896 0 12.384-4.032 16.896-9.792 16.896z"/>
    <path d="m1126.8 515.38c-15.36 0-24.48 10.752-24.48 26.976 0 16.896 9.216 26.976 24.384 26.976 15.264 0 24.384-10.848 24.384-26.976 0-16.896-9.12-26.976-24.288-26.976zm0 10.176c6.624 0 10.08 5.088 10.08 16.8 0 11.616-3.456 16.8-10.176 16.8s-10.176-5.088-10.176-16.8c0-11.616 3.456-16.8 10.272-16.8z"/>
    <path d="m1182.8 515.38c-15.36 0-24.48 10.752-24.48 26.976 0 16.896 9.216 26.976 24.384 26.976 15.264 0 24.384-10.848 24.384-26.976 0-16.896-9.12-26.976-24.288-26.976zm0 10.176c6.624 0 10.08 5.088 10.08 16.8 0 11.616-3.456 16.8-10.176 16.8s-10.176-5.088-10.176-16.8c0-11.616 3.456-16.8 10.272-16.8z"/>
    <path d="m1231.1 495.12-13.632 1.536v71.136h13.632zm30.912 21.792h-14.112l-16.32 23.04 16.416 27.84h15.456l-17.664-28.512z"/>
    <path d="m1313.5 499.83c-13.44 0-23.232 7.392-23.232 18.72 0 10.08 5.76 15.84 20.16 20.352 10.08 3.072 12.672 5.376 12.672 10.656 0 5.856-4.608 9.12-11.424 9.12s-12.096-2.496-16.992-6.624l-7.2 7.968c5.472 5.376 13.536 9.312 24.576 9.312 16.128 0 25.728-8.544 25.728-20.736 0-12.288-7.68-17.28-19.68-21.12-10.848-3.36-13.344-5.28-13.344-9.888 0-4.704 3.936-7.2 9.696-7.2 5.376 0 9.984 1.728 14.688 5.568l6.72-7.776c-5.76-5.376-12.48-8.352-22.368-8.352z"/>
    <path d="m1372.9 556.75c-2.112 1.152-3.936 1.728-5.76 1.728-3.456 0-5.088-1.92-5.088-6.912v-25.056h10.368l1.344-9.6h-11.712v-12.768l-13.632 1.632v11.136h-7.584v9.6h7.584v25.344c0 11.328 5.376 17.376 15.936 17.472 4.512 0 9.504-1.344 13.248-3.936z"/>
    <path d="m1410 515.47c-5.952 0-10.848 4.224-13.248 11.328l-1.248-9.888h-11.808v50.88h13.632v-26.304c1.824-8.16 4.704-12.768 10.944-12.768 1.728 0 2.976 0.288 4.512 0.672l2.304-13.152c-1.728-0.48-3.264-0.768-5.088-0.768z"/>
    <path d="m1461.9 541.2c0-16.224-8.544-25.824-22.944-25.824-14.88 0-23.136 11.904-23.136 27.264 0 15.936 8.544 26.688 24.864 26.688 7.968 0 14.304-2.88 19.296-6.912l-5.664-7.68c-4.416 3.072-8.064 4.416-12.384 4.416-6.528 0-11.136-2.88-12.096-12.672h31.776c0.096-1.44 0.288-3.552 0.288-5.28zm-13.536-3.264h-18.528c0.672-9.6 4.032-13.248 9.408-13.248 6.528 0 9.12 4.992 9.12 12.672z"/>
    <path d="m1509.7 553.68v-20.544c0-11.52-6.048-17.76-20.16-17.76-5.76 0-12.48 1.248-18.816 3.744l3.072 9.12c5.184-1.728 10.08-2.688 13.44-2.688 6.432 0 9.12 2.016 9.12 8.352v2.496h-5.856c-15.072 0-23.424 6.048-23.424 17.184 0 9.216 6.336 15.744 16.512 15.744 6.048 0 11.616-2.112 15.264-7.68 2.112 5.088 5.952 7.008 11.712 7.488l2.88-9.024c-2.496-0.864-3.744-2.304-3.744-6.432zm-22.368 5.856c-4.224 0-6.528-2.592-6.528-7.104 0-5.568 3.648-8.256 11.04-8.256h4.512v9.696c-2.112 3.648-5.088 5.664-9.024 5.664z"/>
    <path d="m1578.4 515.38c-6.528 0-11.232 2.976-15.264 8.256-1.92-5.28-6.336-8.256-12.096-8.256-6.432 0-11.04 2.88-14.784 7.872l-1.056-6.336h-11.808v50.88h13.632v-35.136c2.496-4.512 4.992-7.104 8.736-7.104 2.784 0 4.992 1.632 4.992 7.488v34.752h13.632v-35.136c2.592-4.512 5.088-7.104 8.832-7.104 2.688 0 4.992 1.632 4.992 7.488v34.752h13.632v-37.056c0-9.6-5.472-15.36-13.44-15.36z"/>
    <path d="m1611.5 490.71c-4.896 0-8.256 3.456-8.256 7.968s3.36 7.968 8.256 7.968 8.352-3.456 8.352-7.968-3.456-7.968-8.352-7.968zm6.912 26.208h-13.632v50.88h13.632z"/>
    <path d="m1660.2 515.38c-6.528 0-11.424 2.88-15.552 7.968l-1.056-6.432h-11.808v50.88h13.632v-35.136c2.784-4.512 5.856-7.104 9.792-7.104 3.456 0 5.568 1.632 5.568 7.488v34.752h13.632v-37.056c0-9.6-5.28-15.36-14.208-15.36z"/>
    <path d="m1729.6 509.23c-6.144 3.456-12.096 6.432-23.808 6.144-12.768 0-21.696 7.2-21.696 18.432 0 6.528 2.688 11.04 9.024 14.496-3.648 2.304-5.952 5.856-5.952 9.504 0 5.376 4.416 9.984 15.072 9.984h7.488c5.376 0 7.968 2.112 7.968 5.568 0 3.648-2.496 6.24-11.904 6.24-9.696 0-11.808-2.112-11.808-6.912h-12.192c0 10.176 5.088 16.224 23.712 16.224 16.992 0 25.92-6.24 25.92-16.512 0-8.448-7.392-14.592-18.912-14.592h-7.776c-4.992 0-5.856-1.632-5.856-3.36 0-1.344 0.768-2.592 1.92-3.36 1.824 0.48 3.744 0.672 5.952 0.672 12.96 0 20.928-7.2 20.928-17.088 0-6.432-3.168-10.272-9.408-13.056 6.144 0 10.944-0.48 14.688-1.92zm-23.52 15.264c5.664 0 8.448 2.88 8.448 8.928 0 6.24-2.88 9.504-8.352 9.504-5.184 0-8.448-3.456-8.448-9.312 0-5.568 3.168-9.12 8.352-9.12z"/>
  </g>
</svg>
